<?xml version="1.0" encoding="UTF-8"?>
<?xml-stylesheet type="text/css" href="../css/style.css"?>
<!DOCTYPE svg PUBLIC "-//W3C//DTD SVG 1.1//EN" "http://www.w3.org/Graphics/SVG/1.1/DTD/svg11.dtd">
<!-- Creator: CorelDRAW X7 -->
<svg xmlns="http://www.w3.org/2000/svg" xml:space="preserve" width="3661px" height="2864px" version="1.1" style="shape-rendering:geometricPrecision; text-rendering:geometricPrecision; image-rendering:optimizeQuality; fill-rule:evenodd; clip-rule:evenodd"
viewBox="0 0 3220 2519"
 xmlns:xlink="http://www.w3.org/1999/xlink">
 <defs>
  <style type="text/css">
   <![CDATA[
    .str1 {stroke:black;stroke-width:8.79555}
    .str0 {stroke:black;stroke-width:17.5921}
    .str2 {stroke:black;stroke-width:1.7589}
    .fil1 {fill:none;fill-rule:nonzero}
    .fil2 {fill:black;fill-rule:nonzero}
    .fil0 {fill:#FFDB15;fill-rule:nonzero}
   ]]>
  </style>
 </defs>
 <g id="Camada_x0020_1">
  <metadata id="CorelCorpID_0Corel-Layer"/>
  <g id="_2471722446080">
   <path class="fil0" d="M1969 594l-3 785c0,163 -127,302 -286,323l0 85c100,-10 193,-56 261,-131l29 -32 151 138c38,-47 68,-101 91,-158 27,-70 41,-145 42,-221l2 -788 -287 -1zm-330 1282l-44 -1 -1 -131 -14 -3c-86,-14 -163,-58 -219,-124 -56,-67 -87,-151 -86,-237l3 -654 -306 -133 -3 783c-1,370 299,671 669,673 180,0 344,-71 465,-187l-129 -118c-91,85 -211,132 -335,132l0 0z"/>
   <path id="1" class="fil1 str0" d="M1969 594l-3 785c0,163 -127,302 -286,323l0 85c100,-10 193,-56 261,-131l29 -32 151 138c38,-47 68,-101 91,-158 27,-70 41,-145 42,-221l2 -788 -287 -1zm-330 1282l-44 -1 -1 -131 -14 -3c-86,-14 -163,-58 -219,-124 -56,-67 -87,-151 -86,-237l3 -654 -306 -133 -3 783c-1,370 299,671 669,673 180,0 344,-71 465,-187l-129 -118c-91,85 -211,132 -335,132l0 0z"/>
   <path class="fil0" d="M1549 9l0 258 229 0 -1 401 86 0 1 -659 -315 0zm143 344l-229 0 -2 978 315 137 1 -714 -86 0 1 -401z"/>
   <path id="1" class="fil1 str0" d="M1549 9l0 258 229 0 -1 401 86 0 1 -659 -315 0zm143 344l-229 0 -2 978 315 137 1 -714 -86 0 1 -401z"/>
  </g>
  <path class="fil0" d="M316 2059l0 248c0,51 -40,95 -90,102l0 27c31,-3 60,-18 82,-42l9 -10 48 44c12,-16 21,-32 28,-51 9,-22 13,-45 13,-69l0 -249 -90 0zm-103 405l-14 0 -1 -42 -4 -1c-27,-4 -52,-18 -69,-39 -18,-20 -28,-47 -28,-74l1 -207 -97 -41 0 247c0,117 95,212 212,212 56,0 108,-23 146,-60l-41 -37c-28,27 -66,42 -105,42l0 0z"/>
  <path id="1" class="fil0" d="M1988 2052l0 82 72 0 0 126 27 0 0 -208 -99 0zm45 109l-73 0 0 309 100 43 0 -226 -27 0 0 -126z"/>
  <path id="2" class="fil2" d="M719 2175l0 161 -224 -196 0 73 187 163 0 35 118 102 0 -373 -81 35zm-246 338l80 0 0 -174 108 94 0 -35 -188 -163 0 278z"/>
  <path id="3" class="fil2" d="M1136 2182c-31,-31 -71,-48 -114,-48l-130 1 0 31 31 0 0 166 49 0 0 -117 50 0c21,0 41,9 57,24 20,19 31,47 31,75 0,53 -40,99 -88,99l-50 0 0 80 50 0c93,0 168,-80 168,-179 0,-50 -20,-98 -54,-132l0 0zm-235 6l-31 0 0 328 80 0 0 -162 -49 0 0 -166z"/>
  <path id="4" class="fil2" d="M1317 2386l16 0 0 -26 -73 0 0 -46 -24 0 0 199 266 0 0 -81 -185 0 0 -46zm207 -166l0 -81 -266 0 0 152 24 0 0 47 73 0 0 26 137 0 0 -1 32 -79 -185 0 0 -64 185 0z"/>
  <path id="5" class="fil2" d="M1685 2220l99 0c20,0 37,17 37,37 0,20 -17,36 -37,36l-99 0 0 21 127 0 29 45c36,-20 60,-58 60,-102 0,-65 -52,-117 -117,-117l-126 0 0 117 27 0 0 -37zm134 161c0,0 0,0 0,0l-29 -45 -127 0 0 -57 -27 0 0 -117 -54 0 0 351 81 -35 0 -82 70 0 74 117 97 0 -85 -132z"/>
  <path id="6" class="fil2" d="M2398 2175l0 161 -224 -196 0 73 187 163 0 35 117 102 0 -373 -80 35zm-246 338l80 0 0 -174 107 94 0 -35 -187 -163 0 278z"/>
  <path id="7" class="fil2" d="M2600 2188l-52 0 0 325 81 0 0 -105 116 0 32 -81 -177 0 0 -139zm-28 -48l0 1 -2 0 0 25 52 0 0 139 29 0 0 -84 187 0 0 -81 -266 0z"/>
  <path id="8" class="fil2" d="M2900 2360l3 10c5,16 13,30 22,43 8,11 17,20 28,28l29 -47c-15,-12 -26,-28 -32,-46 -8,-25 -6,-52 5,-76 12,-23 33,-41 58,-49 25,-8 52,-6 75,6 0,0 1,0 1,0l32 -51 9 6c16,11 31,24 42,39 10,13 17,26 23,41l19 -4c-15,-45 -47,-82 -89,-103 -43,-22 -92,-26 -137,-11 -40,13 -73,39 -95,73 -3,6 -7,11 -9,17 -20,39 -23,88 -12,130l28 -6zm310 -77l-30 7 -3 -10c-5,-16 -13,-31 -22,-44 -8,-10 -17,-19 -28,-27l-29 46c15,11 26,27 32,46 9,25 7,52 -5,75 -2,4 -4,7 -5,10 -13,19 -31,33 -53,40 -25,8 -52,6 -75,-6l-33 51 -9 -6c-16,-10 -30,-23 -42,-38 -10,-13 -17,-27 -23,-41l-18 4c15,45 46,81 88,102 43,22 92,25 138,10 45,-15 82,-46 104,-89 19,-39 23,-88 13,-130l0 0z"/>
  <path id="9" class="fil1 str1" d="M316 2059l0 248c0,51 -40,95 -90,102l0 27c31,-3 60,-18 82,-42l9 -10 48 44c12,-16 21,-32 28,-51 9,-22 13,-45 13,-69l0 -249 -90 0zm-103 405l-14 0 -1 -42 -4 -1c-27,-4 -52,-18 -69,-39 -18,-20 -28,-47 -28,-74l1 -207 -97 -41 0 247c0,117 95,212 212,212 56,0 108,-23 146,-60l-41 -37c-28,27 -66,42 -105,42l0 0z"/>
  <path id="10" class="fil1 str1" d="M1988 2052l0 82 72 0 0 126 27 0 0 -208 -99 0zm45 109l-73 0 0 309 100 43 0 -226 -27 0 0 -126z"/>
  <path id="11" class="fil1 str2" d="M719 2175l0 161 -224 -196 0 73 187 163 0 35 118 102 0 -373 -81 35zm-246 338l80 0 0 -174 108 94 0 -35 -188 -163 0 278z"/>
  <path id="12" class="fil1 str2" d="M1136 2182c-31,-31 -71,-48 -114,-48l-130 1 0 31 31 0 0 166 49 0 0 -117 50 0c21,0 41,9 57,24 20,19 31,47 31,75 0,53 -40,99 -88,99l-50 0 0 80 50 0c93,0 168,-80 168,-179 0,-50 -20,-98 -54,-132l0 0zm-235 6l-31 0 0 328 80 0 0 -162 -49 0 0 -166z"/>
  <path id="13" class="fil1 str2" d="M1317 2386l16 0 0 -26 -73 0 0 -46 -24 0 0 199 266 0 0 -81 -185 0 0 -46zm207 -166l0 -81 -266 0 0 152 24 0 0 47 73 0 0 26 137 0 0 -1 32 -79 -185 0 0 -64 185 0z"/>
  <path id="14" class="fil1 str2" d="M1685 2220l99 0c20,0 37,17 37,37 0,20 -17,36 -37,36l-99 0 0 21 127 0 29 45c36,-20 60,-58 60,-102 0,-65 -52,-117 -117,-117l-126 0 0 117 27 0 0 -37zm134 161c0,0 0,0 0,0l-29 -45 -127 0 0 -57 -27 0 0 -117 -54 0 0 351 81 -35 0 -82 70 0 74 117 97 0 -85 -132z"/>
  <path id="15" class="fil1 str2" d="M2398 2175l0 161 -224 -196 0 73 187 163 0 35 117 102 0 -373 -80 35zm-246 338l80 0 0 -174 107 94 0 -35 -187 -163 0 278z"/>
  <path id="16" class="fil1 str2" d="M2600 2188l-52 0 0 325 81 0 0 -105 116 0 32 -81 -177 0 0 -139zm-28 -48l0 1 -2 0 0 25 52 0 0 139 29 0 0 -84 187 0 0 -81 -266 0z"/>
  <path id="17" class="fil1 str2" d="M2900 2360l3 10c5,16 13,30 22,43 8,11 17,20 28,28l29 -47c-15,-12 -26,-28 -32,-46 -8,-25 -6,-52 5,-76 12,-23 33,-41 58,-49 25,-8 52,-6 75,6 0,0 1,0 1,0l32 -51 9 6c16,11 31,24 42,39 10,13 17,26 23,41l19 -4c-15,-45 -47,-82 -89,-103 -43,-22 -92,-26 -137,-11 -40,13 -73,39 -95,73 -3,6 -7,11 -9,17 -20,39 -23,88 -12,130l28 -6zm310 -77l-30 7 -3 -10c-5,-16 -13,-31 -22,-44 -8,-10 -17,-19 -28,-27l-29 46c15,11 26,27 32,46 9,25 7,52 -5,75 -2,4 -4,7 -5,10 -13,19 -31,33 -53,40 -25,8 -52,6 -75,-6l-33 51 -9 -6c-16,-10 -30,-23 -42,-38 -10,-13 -17,-27 -23,-41l-18 4c15,45 46,81 88,102 43,22 92,25 138,10 45,-15 82,-46 104,-89 19,-39 23,-88 13,-130l0 0z"/>
 </g>
</svg>
